<svg xmlns="http://www.w3.org/2000/svg" xmlns:xlink="http://www.w3.org/1999/xlink" width="1931.271" height="1650.204" viewBox="0 0 1931.271 1650.204">
  <defs>
    <filter id="Path_88" x="630.198" y="1145.418" width="308.386" height="241.036" filterUnits="userSpaceOnUse">
      <feOffset dy="3" input="SourceAlpha"/>
      <feGaussianBlur stdDeviation="3" result="blur"/>
      <feFlood flood-opacity="0.161"/>
      <feComposite operator="in" in2="blur"/>
      <feComposite in="SourceGraphic"/>
    </filter>
    <filter id="Path_89" x="874.574" y="1283.206" width="122.733" height="89.129" filterUnits="userSpaceOnUse">
      <feOffset dy="3" input="SourceAlpha"/>
      <feGaussianBlur stdDeviation="3" result="blur-2"/>
      <feFlood flood-opacity="0.161"/>
      <feComposite operator="in" in2="blur-2"/>
      <feComposite in="SourceGraphic"/>
    </filter>
    <filter id="Path_79" x="855.522" y="995.033" width="302.283" height="334.503" filterUnits="userSpaceOnUse">
      <feOffset dy="3" input="SourceAlpha"/>
      <feGaussianBlur stdDeviation="3" result="blur-3"/>
      <feFlood flood-opacity="0.161"/>
      <feComposite operator="in" in2="blur-3"/>
      <feComposite in="SourceGraphic"/>
    </filter>
    <filter id="Path_10" x="852.431" y="701.507" width="337.194" height="425.334" filterUnits="userSpaceOnUse">
      <feOffset input="SourceAlpha"/>
      <feGaussianBlur stdDeviation="10" result="blur-4"/>
      <feFlood flood-opacity="0.161"/>
      <feComposite operator="in" in2="blur-4"/>
      <feComposite in="SourceGraphic"/>
    </filter>
  </defs>
  <g id="Group_9" data-name="Group 9" transform="translate(3.406 -100.056)">
    <path id="Path_78" data-name="Path 78" d="M6079.865,101.781s-207.115-26.3-281.708,126.441c-91.8-44.785-254.828-13.3-297.7,56.887-130.234-69.594-210.359-29.406-263.29,18.023-117.069-89.57-236.1-53.179-327.741-18.023-78.2-83.609-198.125-72.062-256.016-39.8-78.453-70.422-219.312-63.547-291.359-17.09-131.391-64.769-213.453-2.347-213.453-2.347V1750.26H6079.865Z" transform="translate(-4152)" fill="#b1c3ff" opacity="0.682"/>
    <g id="Group_2" data-name="Group 2">
      <path id="Path_97" data-name="Path 97" d="M5280.7,1368.125c42.2,19.281,273.047,20.781,200.766,107.188s-243.266,218.109-385.328,198.406-455.406-81.25-402.312-156.172,251.2-216.7,298.234-213.2S5238.5,1348.844,5280.7,1368.125Z" transform="translate(-4152)" fill="#8068a7" opacity="0.109"/>
      <g id="Group_1" data-name="Group 1" transform="translate(74)">
        <path id="Path_91" data-name="Path 91" d="M4996.295,1556.229c2.436,2.752,62.117,33.7,84.371,45.359,12.506,2.709,21.684-3.119,20.34-12.061-.91-15.578-16.67-41.041-20.34-41.33S4993.859,1553.477,4996.295,1556.229Z" transform="translate(-4152)" fill="#6d5d86"/>
        <path id="Path_90" data-name="Path 90" d="M4914.432,1553.607c-39.666,1.684-97.908-1.932-111.365-6.109-38.947-14.18-25.76-50.1-4.652-53.369,8.424-4.781,107.246,17.223,104.568,20.223C4900.029,1517.561,4890.471,1538.834,4914.432,1553.607Z" transform="translate(-4152)" fill="#6d5d86"/>
        <rect id="Rectangle_29" data-name="Rectangle 29" width="189" height="117" transform="translate(852 1010)" fill="#534767"/>
        <path id="Path_81" data-name="Path 81" d="M5010.457,1425.335s27.35,7.824,29.188,5.087-28.608-12.893-29.187-10.737A16.981,16.981,0,0,0,5010.457,1425.335Z" transform="translate(-4152)" fill="none" stroke="#707070" stroke-width="1"/>
        <path id="Path_84" data-name="Path 84" d="M5129.15,1059.219s-8.671,30.25-.494,35.276,13.659,8.087,13.659,8.087l-33.377,88-80.513,5.742,21.039-91.306s23.894-.449,26.841-10.525,3.658-23.174,3.658-23.174Z" transform="translate(-4152)" fill="#fdd6d9"/>
        <path id="Path_85" data-name="Path 85" d="M5183.122,1370.76c9.41,23.434,34.175,104.389,15.3,129.732-37.262-57.957-95.528-84.373-106.989-82.854S5167.884,1391.9,5183.122,1370.76Z" transform="translate(-4152)" fill="#685881"/>
        <path id="Path_86" data-name="Path 86" d="M5199.75,1496.125c-.9,4.73-9.436,62.012-57.651,61.969s-44.6-12.934-60.158-10.312-170.625,20.191-180.66,0c-9.543-14.16-11.66-26.824,0-34.227,12.848.895,52.566-13.121,67-23.836,28.23-11.832,57.516-56.715,79.008-63.211,15.4-3.176,31.988-13.461,46.184-9C5154.813,1424,5200.648,1491.395,5199.75,1496.125Z" transform="translate(-4152)" fill="#534767"/>
        <path id="Path_87" data-name="Path 87" d="M5011.8,1386.3c-2.666,8.059-209.146-38.246-218.912-26.434-20.281,7.988-30.3,22.844-29.48,46.066,1.779,29.756,72.084,73.683,115.5,94.9,16.485,8.057,24.523,14.986,30,13.309,19.777-6.055,52.2-14.285,61.8-26.437-6.941-14.84-25.637-21.334-25.637-26.034,17.77.637,36.295,13.588,41.527,17.362,7.227-1.687,91.555-54.383,82.148-61.039S5014.465,1378.238,5011.8,1386.3Z" transform="translate(-4152)" fill="#534767"/>
        <g transform="matrix(1, 0, 0, 1, -77.41, 100.06)" filter="url(#Path_88)">
          <path id="Path_88-2" data-name="Path 88" d="M4713.792,1251.474l176.656,37.552,113.729,171.063-13.583,14.422-168.807-49.422v-9.854Z" transform="translate(-4074.59 -100.06)" fill="#6c6379"/>
        </g>
        <g transform="matrix(1, 0, 0, 1, -77.41, 100.06)" filter="url(#Path_89)">
          <path id="Path_89-2" data-name="Path 89" d="M4958.168,1389.262l104.733,29.124-58.838,42.005-44.428-67.484Z" transform="translate(-4074.59 -100.06)" fill="#6c6379"/>
        </g>
        <path id="Path_92" data-name="Path 92" d="M4968.3,1404c.062-1.82,12.068-2.1,12.068-2.1l14.6-4.193h6.505s6.039-1.97,10.888-3.27,25.194,6.822,30.758,7.462a47.326,47.326,0,0,0,10.395,0l25.211,15.236s-23.608,14.29-39.162,12.152-26.892-12.3-29.562-9.589c-5.99,5.875-2.211,15.894-1.1,22.672.234,5.259-3.65,6.572-5.076,3.71s-6.03-20.075-4.758-26.381c-6.213-2.4-11.744,12.339-11.486,14.113-1.54-2.072-5.525-8.461-7.216-11.077C4978.9,1420.282,4969.371,1406.032,4968.3,1404Z" transform="translate(-4152)" fill="#fbd4d7"/>
        <path id="Path_93" data-name="Path 93" d="M4983.413,1416.181s-3.247,3.649-2.254,5.31" transform="translate(-4152)" fill="none" stroke="#e8a8a8" stroke-width="1"/>
        <g transform="matrix(1, 0, 0, 1, -77.41, 100.06)" filter="url(#Path_79)">
          <path id="Path_79-2" data-name="Path 79" d="M5138.7,1101.86c9.623,4.057,61.314,8.2,67.7,17.287,24.724,14.207,18.408,87.126,6.618,150.687-8.522,45.948-19.635,87.087-25.4,96.225-13.656,21.652-63.437,39.252-97.586,51.533-32-.294-33.568-8.178-37.459-15.287-2.873,0-2.709-.026-6.695,0-6.557-5.684-27.135-16.7-29.476-16.7-4.032-4.858,7.552-21.48,5.739-27.634-17.973,8.727-62.852,34.433-62.852,34.433s-14.34-20.129-20.173-29.756c10.055-10.176,53.528-47.36,57.274-64.817,1.993-9.287-3.48-57.726-5.38-103.354-2.852-42.751-1.473-77.424,21.782-84.72,13.963-5.648,40.064-5.77,55.418-8.556.966-3.482-15.527,77.516-3.607,77.875C5076.1,1179.419,5137.644,1097.931,5138.7,1101.86Z" transform="translate(-4074.59 -100.06)" fill="#685881"/>
        </g>
        <path id="Path_80" data-name="Path 80" d="M5162.3,1177.776s-15.919,41.208-13.553,43.6,11.545,12.523,11.545,9.714S5162.3,1177.776,5162.3,1177.776Z" transform="translate(-4152)" fill="#534767" opacity="0.472"/>
        <path id="Path_82" data-name="Path 82" d="M5052.725,1402.283s87.282-50.494,91.723-58.864,9.167-32.477,15.948-109.568" transform="translate(-4152)" fill="none" stroke="#534767" stroke-width="1"/>
        <path id="Path_83" data-name="Path 83" d="M5012.353,1176.92s-19.035,38.693-12.048,54.765,22.956,39.841,23.914,57.706,2.246,64.961-2.246,68.862" transform="translate(-4152)" fill="none" stroke="#534767" stroke-width="1"/>
        <path id="Path_94" data-name="Path 94" d="M5152.685,1104.632l-35.993,51.181-6.217-5.2,3.127,10.719s-19.154,15.047-50.953,18.036c8.282,2.075,57.046-55.114,78.063-78C5147.8,1103.25,5152.685,1104.632,5152.685,1104.632Z" transform="translate(-4152)" fill="none" stroke="#534767" stroke-width="1"/>
        <path id="Path_95" data-name="Path 95" d="M5071.724,1112.5l26.851,37.233,7.733-2.65s-5.185,6.2-5.426,7.851c11.41,1.683,19.175,4.163,32.555,4.058-10.9-.624-42.649-41.734-52.375-58.3C5078.15,1105.7,5071.724,1112.5,5071.724,1112.5Z" transform="translate(-1898.934 -3269.483) rotate(45)" fill="none" stroke="#534767" stroke-width="1"/>
        <g id="Group-face" transform="translate(751.21 825.487)">
          <path id="Path_61" data-name="Path 61" d="M79.353,0c43.826,0,83.537,41.968,83.537,93.739,0,34.22.652,42.925-24,59.446-20.4,24.342-44.677,34.293-59.534,34.293-11.011,0-21.292-3-37.523-16.357q-7.07-5.819-16.314-15.012C1.924,140.092,0,128.529,0,93.739,0,41.968,35.528,0,79.353,0Z" transform="translate(113.969 64.953)" fill="#fdd6d9"/>
          <path id="Path_9" data-name="Path 9" d="M807.2,1551.24c-12.723,26.111-23.484,32.978-40.83,40.346-9.288,2.7-27.714,1.287-37.465,17.939-7.127,3.573-10.216,1.466-16.527,9.422-19.56-51.508,115.084-104.484,115.084-104.484s8.6,8.765,19.45,20.468c17.679,19.073,41.325,46.03,40.112,52.448-4.168,8.082-5.6,17.664-12.285,9.489-5.914-19.355-20.566-5.282-20.566-5.282S818.555,1570.912,807.2,1551.24Z" transform="translate(-600.547 -1452.797)" fill="#ffc6ca"/>
          <g transform="matrix(1, 0, 0, 1, -828.62, -725.43)" filter="url(#Path_10)">
            <path id="Path_10-2" data-name="Path 10" d="M839.76,1562.852c-18.134,31.409-22.754,43.068-53.123,46.854-20.461,6.609-12.415,26.715-11.508,49.093.111,2.747-1.337,45.571,11.508,63.888,8.009,9.253,6.4,7.919,7.949,19.782,10.565,27.484,3.286,73.521-2.152,91.538-3.535,23.21-41.629,11.458-59.861,4.008-7.219-2.948-7.7-67.508-6.36-74.275.047-1.738-42.947-25.273-25.074-72.961-30.188-30.188.846-60.9,0-75.293-6.158-36.923,10.17-74.428,29.962-95.893,21.425-19.59,73.34-45.834,121.3-34.5,28.585,11.681,44.046,27.508,56.723,40.361,19.576,18.422,50.105,47.463,37.876,90.037-7.739,15.869-14.531,30.839-5.668,42.575s34.521,34.854,16.779,87.749c-.929,1.906,19.656,47.164-5.787,59.44-8.141-48.279-44.3-41.965-60.758-49.242-27.119-9.057-52.346-40.816-24.185-68.977,30.423-30.423,21.1-76.512,5.414-89.944S846.591,1574.684,839.76,1562.852Z" transform="translate(194.52 -750.84)" fill="#534767"/>
          </g>
          <path id="Path_5" data-name="Path 5" d="M794.473,1499.238s-66.116,13.284-79.753,59.649c-5.648,31.286,9.142,54.636-14.988,75.2-19.241,17.047-36.927,15.8-38.318,29.394" transform="translate(-613.574 -1460.977)" fill="none" stroke="#685881" stroke-width="1"/>
          <path id="Path_6" data-name="Path 6" d="M813.381,1490.876c-26.848-16.943-72.663,2.962-96.847,17.928-33.958,27.415-37.683,67.254-36,108.151-2.291,18.78-35.922,46.9,0,78.845" transform="translate(-617.983 -1475.69)" fill="none" stroke="#534767" stroke-width="2"/>
          <path id="Path_62" data-name="Path 62" d="M702.113,1506.271s8.623,2.111,32.33,18.845c33.958,27.416,58.585,61.465,35.649,108.261-16.449,25.591,5.9,39.07,6.13,46.687" transform="translate(-457.849 -1480.047)" fill="none" stroke="#534767" stroke-width="2"/>
          <path id="Path_8" data-name="Path 8" d="M804.018,1514.916s42.056,8.991,46.539,47.342c1.318,31.819-24.634,41.442-23.118,73.679" transform="translate(-521.082 -1445.045)" fill="none" stroke="#534767" stroke-width="2"/>
        </g>
        <path id="Path_96" data-name="Path 96" d="M5078.809,1074.247s27.247,15.994,47.251-5.013c-21.567,26.558-46.624,8.566-46.624,8.566v-2.841Z" transform="translate(-4152)" fill="#f0babe"/>
      </g>
    </g>
  </g>
</svg>
