<svg xmlns="http://www.w3.org/2000/svg" width="433.956" height="324.974" viewBox="0 0 433.956 324.974">
  <g id="Group_-icon-2" data-name="Group -icon-2" transform="translate(2277.523 -449.03)">
    <path id="Path_75" data-name="Path 75" d="M-1868.889,469.478s15.22-1.424,17.35,2.909c1.5,4.083,4.7,275.819-2.82,281.91-3.7,7.946-182.2,3.692-183.164,4.122" fill="none" stroke="#ff9c72" stroke-linecap="round" stroke-width="12"/>
    <path id="Path_76" data-name="Path 76" d="M-2018.2,469.478s-15.22-1.424-17.35,2.909c-1.5,4.083-4.7,275.819,2.82,281.91,3.7,7.946,182.2,3.692,183.164,4.122" transform="translate(-234)" fill="none" stroke="#ff9c72" stroke-linecap="round" stroke-width="12"/>
    <path id="Path_73" data-name="Path 73" d="M-2061.445,768c1.83-.166,7.338-24.631,16.162-30.647s163.372,5.628,168.807-1.332,4.378-273.249,0-277.711-161.213-4.279-166.078,0c-12.758,4.767-9.016,23.227-17.75,23.227s-6.291-22.167-17.187-23.227c-4.227-1.078-163.271-5.02-166.879,0s-2.684,273.585,0,277.711,156.755-1.587,166.337,1.332S-2063.275,768.165-2061.445,768Z" fill="none" stroke="#6666fd" stroke-width="12"/>
    <path id="Path_74" data-name="Path 74" d="M-2060.424,489.495V737.323" transform="translate(0 27.042)" fill="none" stroke="#6666fd" stroke-linecap="round" stroke-width="12"/>
    <line id="Line_27" data-name="Line 27" x2="54" transform="translate(-1960.5 504.5)" fill="none" stroke="#e4a1fc" stroke-linecap="round" stroke-width="12"/>
    <line id="Line_38" data-name="Line 38" x1="54" transform="translate(-2214.5 504.5)" fill="none" stroke="#e4a1fc" stroke-linecap="round" stroke-width="12"/>
    <line id="Line_35" data-name="Line 35" x2="20" transform="translate(-2013.5 504.5)" fill="none" stroke="#e4a1fc" stroke-linecap="round" stroke-width="12"/>
    <line id="Line_39" data-name="Line 39" x1="20" transform="translate(-2127.5 504.5)" fill="none" stroke="#e4a1fc" stroke-linecap="round" stroke-width="12"/>
    <line id="Line_37" data-name="Line 37" x2="2" transform="translate(-2015.5 556.5)" fill="none" stroke="#e4a1fc" stroke-linecap="round" stroke-width="12"/>
    <line id="Line_41" data-name="Line 41" x1="2" transform="translate(-2107.5 556.5)" fill="none" stroke="#e4a1fc" stroke-linecap="round" stroke-width="12"/>
    <line id="Line_28" data-name="Line 28" x2="109" transform="translate(-2015.5 530.5)" fill="none" stroke="#e4a1fc" stroke-linecap="round" stroke-width="12"/>
    <line id="Line_40" data-name="Line 40" x1="109" transform="translate(-2214.5 530.5)" fill="none" stroke="#e4a1fc" stroke-linecap="round" stroke-width="12"/>
    <line id="Line_29" data-name="Line 29" x2="87" transform="translate(-1993.5 556.5)" fill="none" stroke="#e4a1fc" stroke-linecap="round" stroke-width="12"/>
    <line id="Line_42" data-name="Line 42" x1="87" transform="translate(-2214.5 556.5)" fill="none" stroke="#e4a1fc" stroke-linecap="round" stroke-width="12"/>
    <line id="Line_30" data-name="Line 30" x2="97" transform="translate(-2003.5 582.5)" fill="none" stroke="#e4a1fc" stroke-linecap="round" stroke-width="12"/>
    <line id="Line_43" data-name="Line 43" x1="97" transform="translate(-2214.5 582.5)" fill="none" stroke="#e4a1fc" stroke-linecap="round" stroke-width="12"/>
    <line id="Line_31" data-name="Line 31" x2="107" transform="translate(-2013.5 608.5)" fill="none" stroke="#e4a1fc" stroke-linecap="round" stroke-width="12"/>
    <line id="Line_44" data-name="Line 44" x1="107" transform="translate(-2214.5 608.5)" fill="none" stroke="#e4a1fc" stroke-linecap="round" stroke-width="12"/>
    <line id="Line_32" data-name="Line 32" x2="69" transform="translate(-1975.5 634.5)" fill="none" stroke="#e4a1fc" stroke-linecap="round" stroke-width="12"/>
    <line id="Line_46" data-name="Line 46" x1="69" transform="translate(-2214.5 634.5)" fill="none" stroke="#e4a1fc" stroke-linecap="round" stroke-width="12"/>
    <line id="Line_36" data-name="Line 36" x2="20" transform="translate(-2013.5 634.5)" fill="none" stroke="#e4a1fc" stroke-linecap="round" stroke-width="12"/>
    <line id="Line_45" data-name="Line 45" x1="20" transform="translate(-2127.5 634.5)" fill="none" stroke="#e4a1fc" stroke-linecap="round" stroke-width="12"/>
    <line id="Line_33" data-name="Line 33" x2="109" transform="translate(-2015.5 660.5)" fill="none" stroke="#e4a1fc" stroke-linecap="round" stroke-width="12"/>
    <line id="Line_47" data-name="Line 47" x1="109" transform="translate(-2214.5 660.5)" fill="none" stroke="#e4a1fc" stroke-linecap="round" stroke-width="12"/>
    <line id="Line_34" data-name="Line 34" x2="109" transform="translate(-2015.5 686.5)" fill="none" stroke="#e4a1fc" stroke-linecap="round" stroke-width="12"/>
    <line id="Line_48" data-name="Line 48" x1="109" transform="translate(-2214.5 686.5)" fill="none" stroke="#e4a1fc" stroke-linecap="round" stroke-width="12"/>
  </g>
</svg>
